<svg xmlns="http://www.w3.org/2000/svg" viewBox="0 0 190.72 185.29"><g id="Layer_2" data-name="Layer 2"><g id="Layer_3" data-name="Layer 3"><path d="M94.62,16.57c18.66-15.84,41.55-14,63.71-15.13C166.8,1,175.3.91,183.74.15c4.45-.4,6.92-.4,6.75,5.36-.42,13.81-.31,27.64,0,41.45.09,4.89-1.93,6.34-6.46,7-11.58,1.7-23.2,1.4-34.8,1.16-20.92-.43-39.75,4.26-54.54,20.13-2.74-4.8-3.06-10-3-15.41.07-10.92-.09-21.85.08-32.78C91.77,23.36,91.54,19.48,94.62,16.57Z" fill="#b72a2e"/><path d="M94.62,16.57l0,58.68c-15.09-15.71-34-20.63-55.17-20.15-11.86.27-23.82,1-35.58-1.68A9.06,9.06,0,0,1,0,45.48C.24,32.63.28,19.76,0,6.91-.09,2.31,2,.75,6,.57c17.48.67,35,1.17,52.45,2.06C72,3.32,83.88,8.53,94.62,16.57Z" fill="#e2262c"/><path d="M33.94,74.34c15-1,27.41,2.56,38.61,10.25C82,91.07,87.05,100.3,87.2,111.65c.3,21.32-.08,42.66.24,64,.08,5.67-2.12,6.8-7.17,6.67-11.31-.29-22.65-.55-33.94.07-7.64.42-10.23-1.58-10.07-9.7.53-27.59.18-55.2.22-82.81C36.49,84.85,36.47,79.86,33.94,74.34Z" fill="#616262"/><path d="M189.41,106c2.52,20.29.62,40.64.65,61,0,6.39-5.86,9.62-11,11.85-23,10.06-45.87,7.77-68.42-2-3.28-1.43-4.57-3.76-4.55-7.38.13-16.91.06-33.83.06-50.52,3.6-1.88,5,1,7,2.22,16.23,9.82,33.28,14.75,52.07,8.58,2.82-.93,7.65-.52,6.44-6.05C179.76,119.93,183.34,111.69,189.41,106Z" fill="#898989"/><path d="M189.41,106c-3,8.77-7.35,16.28-17.78,17.64-9.32-5.56-19.67-7.89-30.2-9.81-11.2-2-20.57-7.39-27.58-16.49-3.3-4.29-3.6-8,.9-12.2C130,70.85,159,68.37,176,80.51,184.64,86.69,189.77,94.94,189.41,106Z" fill="#616262"/></g></g></svg>